<?xml version="1.0" encoding="utf-8"?>
<!-- Generator: Adobe Illustrator 24.1.0, SVG Export Plug-In . SVG Version: 6.00 Build 0)  -->
<svg version="1.1" id="Layer_1" xmlns="http://www.w3.org/2000/svg" xmlns:xlink="http://www.w3.org/1999/xlink" x="0px" y="0px"
	 viewBox="0 0 731.7 621.9" style="enable-background:new 0 0 731.7 621.9;" xml:space="preserve">
<style type="text/css">
	.st0{fill:#070808;}
	.st1{fill:#FFFFFF;stroke:#000000;stroke-width:22.2995;stroke-miterlimit:10;}
	.st2{fill:none;stroke:#000000;stroke-width:22.2995;stroke-miterlimit:10;}
</style>
<path class="st0" d="M10.9,278.7v-28.6h21.4v-42.9h39.8v42.9h25v28.6h-25v81.2c0,6.3,0.8,10.2,2.4,11.8c1.6,1.6,6.5,2.3,14.7,2.3
	c1.2,0,2.5,0,3.9-0.1c1.4,0,2.7-0.1,4-0.2v30l-19,0.7c-19,0.7-32-2.6-38.9-9.9c-4.5-4.6-6.8-11.7-6.8-21.3v-94.6H10.9V278.7z"/>
<path class="st0" d="M240.3,251.8c10.7,4.8,19.6,12.4,26.6,22.7c6.3,9.1,10.4,19.7,12.2,31.8c1.1,7.1,1.5,17.2,1.3,30.5H168.5
	c0.6,15.4,6,26.2,16.1,32.4c6.1,3.9,13.5,5.8,22.2,5.8c9.2,0,16.6-2.3,22.3-7c3.1-2.5,5.9-6.1,8.3-10.6h41
	c-1.1,9.1-6,18.4-14.9,27.8c-13.8,14.9-33,22.4-57.8,22.4c-20.5,0-38.5-6.3-54.1-18.9s-23.5-33.1-23.5-61.5c0-26.6,7.1-47,21.2-61.2
	c14.1-14.2,32.4-21.3,55-21.3C217.6,244.6,229.6,247,240.3,251.8z M180.2,286.5c-5.7,5.9-9.2,13.8-10.7,23.8h69.2
	c-0.7-10.7-4.3-18.8-10.7-24.3s-14.4-8.3-23.8-8.3C193.9,277.7,185.9,280.6,180.2,286.5z"/>
<path class="st0" d="M228.1,452.7c0.5,0,1.7,0.1,3.5,0.2v41.2c-2.5-0.3-4.8-0.5-6.8-0.6s-3.6-0.1-4.8-0.1c-16.2,0-27,5.3-32.6,15.8
	c-3.1,5.9-4.7,15-4.7,27.4v73.5h-40.5V456.3h38.3v26.8c6.2-10.2,11.6-17.2,16.2-21c7.5-6.3,17.3-9.4,29.3-9.4
	C226.9,452.6,227.5,452.6,228.1,452.7z"/>
<path class="st0" d="M357.8,452.7c0.5,0,1.7,0.1,3.5,0.2v41.2c-2.5-0.3-4.8-0.5-6.8-0.6s-3.6-0.1-4.8-0.1c-16.2,0-27,5.3-32.6,15.8
	c-3.1,5.9-4.7,15-4.7,27.4v73.5h-40.5V456.3h38.3v26.8c6.2-10.2,11.6-17.2,16.2-21c7.5-6.3,17.3-9.4,29.3-9.4
	C356.6,452.6,357.2,452.6,357.8,452.7z"/>
<path class="st0" d="M463,516.5c7.5-0.9,12.8-2.1,16-3.5c5.8-2.4,8.7-6.2,8.7-11.4c0-6.3-2.2-10.6-6.6-13s-10.9-3.6-19.5-3.6
	c-9.6,0-16.4,2.4-20.4,7c-2.9,3.5-4.8,8.2-5.7,14.1h-38.8c0.8-13.4,4.6-24.5,11.3-33.1c10.7-13.5,29-20.3,54.9-20.3
	c16.9,0,31.9,3.3,45,10c13.1,6.7,19.7,19.3,19.7,37.8V571c0,4.9,0.1,10.8,0.3,17.8c0.3,5.3,1.1,8.8,2.4,10.7s3.3,3.4,5.9,4.7v5.9
	h-43.7c-1.2-3.1-2.1-6-2.5-8.7c-0.5-2.7-0.8-5.8-1.1-9.3c-5.6,6-12,11.1-19.3,15.4c-8.7,5-18.5,7.5-29.5,7.5c-14,0-25.6-4-34.7-11.9
	c-9.1-7.9-13.7-19.2-13.7-33.8c0-18.9,7.3-32.6,22-41c8-4.6,19.9-7.9,35.5-9.9L463,516.5z M487.5,535.2c-2.6,1.6-5.2,2.9-7.8,3.9
	c-2.6,1-6.2,1.9-10.8,2.7l-9.1,1.7c-8.6,1.5-14.7,3.3-18.5,5.5c-6.3,3.7-9.5,9.4-9.5,17.1c0,6.9,1.9,11.8,5.8,14.9
	c3.9,3.1,8.6,4.6,14.1,4.6c8.8,0,16.9-2.5,24.3-7.6c7.4-5.1,11.2-14.3,11.5-27.8V535.2z"/>
<path class="st0" d="M703.9,465.1c10.1,8.3,15.1,22.1,15.1,41.4V610h-41.2v-93.5c0-8.1-1.1-14.3-3.2-18.6
	c-3.9-7.9-11.4-11.8-22.4-11.8c-13.5,0-22.8,5.8-27.9,17.3c-2.6,6.1-3.9,13.9-3.9,23.4V610h-40.2V456.5h38.9v22.4
	c5.1-7.9,10-13.6,14.6-17.1c8.2-6.2,18.7-9.3,31.3-9.3C680.9,452.6,693.9,456.7,703.9,465.1z"/>
<g id="cuadrado">
	<rect x="333.1" y="18.9" class="st1" width="378.2" height="378.2"/>
</g>
<g id="ojo_derecho">
	<circle cx="607.8" cy="200.1" r="25.1"/>
</g>
<g id="guiño_derecho">
	<path d="M582.8,200.1c0-13.8,11.2-25.1,25.1-25.1c13.8,0,25.1,11.2,25.1,25.1"/>
</g>
<g id="ojo_izquierdo">
	<circle cx="432.6" cy="195.9" r="25.1"/>
</g>
<g id="guiño_izquierdo">
	<path d="M407.6,195.9c0-13.8,11.2-25.1,25.1-25.1s25.1,11.2,25.1,25.1"/>
</g>
<g id="curva">
	<path class="st2" d="M522.1,212c-2.6,52.2-47,92.4-99.2,89.8s-92.4-47-89.8-99.2"/>
	<path class="st2" d="M522.1,212c2.6-52.2,47-92.4,99.2-89.8c52.2,2.6,92.4,47,89.8,99.2"/>
</g>
<g id="smile_abajo">
	<path d="M539.1,282.3c0,28.9,23.4,52.4,52.4,52.4c28.9,0,52.4-23.4,52.4-52.4H539.1z"/>
</g>
<g id="smile_arriba">
	<path d="M532.3,122c0-28.9-23.4-52.4-52.4-52.4S427.6,93,427.6,122H532.3z"/>
</g>
</svg>
